<svg id="Camada_3" data-name="Camada 3" xmlns="http://www.w3.org/2000/svg" viewBox="0 0 595.28 455.05"><defs><style>.cls-1{fill:#fff;}</style></defs><path class="cls-1" d="M541.15,193.05V16.69h-127v174h-69v-106h-140v75h-91v167h-46v-64.5a1.42,1.42,0,0,0-.07-.42,9.3,9.3,0,1,0-2.87,0,1.85,1.85,0,0,0-.06.42v67.5h52v-167h88v167h23v-170h-20v-72h134v103h-22v139h25v-136h69v136h23v-139h-20v-171h121V193.05a9.3,9.3,0,1,0,3,0ZM60.35,252.59a6.3,6.3,0,1,1,6.3,6.3A6.3,6.3,0,0,1,60.35,252.59Zm164.8-89.9v164h-17v-164Zm117,164h-19v-133h19Zm92-133v133h-17v-133Zm105.5,14.82a6.3,6.3,0,1,1,6.3-6.3A6.31,6.31,0,0,1,539.65,208.51Z"/><rect class="cls-1" x="83.21" y="356.39" width="8.1" height="83.17"/><polygon class="cls-1" points="160.49 386.01 160.49 379.7 109.46 379.7 109.46 387.18 148.84 387.18 105.9 433.32 105.9 439.56 162.57 439.56 162.57 432.08 117.6 432.08 160.49 386.01"/><path class="cls-1" d="M181.22,355.29c-1.56,0-2.82,1-3.8,3.07v8.83c.81,2,2.08,3.07,3.8,3.07q2.09,0,4.29-2.7V358C184,356.19,182.52,355.29,181.22,355.29Z"/><rect class="cls-1" x="177.42" y="378.23" width="8.1" height="61.33"/><path class="cls-1" d="M221.33,372.53Q231.5,363,248.81,363q20.12,0,29.68,13.49l6.87-4.29q-12.15-16.68-36.55-16.68-21,0-33.37,11.65t-12.39,31.4q0,19.14,12,30.48t32.51,11.35q23.43,0,36.68-16.93l-6.75-4.29q-10.68,13.74-30,13.74-16.94,0-26.62-9.45t-9.69-25.39Q211.15,382,221.33,372.53Z"/><path class="cls-1" d="M331.11,378.23q-15.08,0-23.92,8.77t-8.83,22.63q0,13.86,8.71,22.57t23.8,8.71q15.09,0,24-8.71t8.89-22.57q0-13.86-8.77-22.63T331.11,378.23ZM349,426.84q-6.61,6.59-18,6.59t-18-6.59q-6.56-6.58-6.56-17.21T313,392.3q6.5-6.58,18-6.59t18.16,6.53q6.5,6.52,6.5,17.39Q355.65,420.25,349,426.84Z"/><path class="cls-1" d="M426.06,383.38q-7.11-5.14-18.28-5.15-13.62,0-21.1,7.73v-6.38h-8.09v60h8.09V406.15q0-9.18,5.64-14.81t15.58-5.63q8.48,0,13.25,3.86t4.79,11.2v38.79H434v-40Q434,389.15,426.06,383.38Z"/><path class="cls-1" d="M504.44,386.57q-8.46-9.69-23.55-9.69t-23.55,9.32q-8,8.83-8,22.82t7.85,22.57q8.48,9.32,23.19,9.32,15.45,0,24-10.06v8.84h8.1v-83.3h-8.1ZM498,426.31q-6.73,7.13-17.62,7.12t-17.13-7q-5.74-6.63-5.75-17.42,0-10.54,5.75-17.42,6.36-7.23,17.13-7.24,11.75,0,17.92,6.69t6.18,18Q504.44,419.57,498,426.31Z"/></svg>