<svg id="Camada_4" data-name="Camada 4" xmlns="http://www.w3.org/2000/svg" viewBox="0 0 963.3 257.8"><defs><style>.cls-1{fill:#fff;}</style></defs><path class="cls-1" d="M359.13,141.75V31H279.38V140.27H236.05V73.71H148.14V120.8H91V225.67H62.11v-40.5a.8.8,0,0,0,0-.27,5.84,5.84,0,1,0-1.8,0,1.17,1.17,0,0,0,0,.27v42.38H92.88V122.69h55.26V227.55h14.44V120.8H150V75.59h84.14v64.68H220.35v87.28h15.7v-85.4h43.33v85.4h14.44V140.27H281.26V32.89h76V141.75a5.84,5.84,0,1,0,1.89,0ZM57.22,179.14a4,4,0,1,1,4,4A4,4,0,0,1,57.22,179.14ZM160.7,122.69v103H150v-103Zm73.47,103H222.24V142.15h11.93Zm57.77-83.52v83.52H281.26V142.15Zm66.25,9.31a4,4,0,1,1,3.95-4A4,4,0,0,1,358.19,151.46Z"/><rect class="cls-1" x="378.51" y="119.66" width="10.38" height="106.65"/><polygon class="cls-1" points="477.61 157.64 477.61 149.55 412.17 149.55 412.17 159.15 462.67 159.15 407.61 218.31 407.61 226.32 480.29 226.32 480.29 216.72 422.62 216.72 477.61 157.64"/><path class="cls-1" d="M504.2,118.25c-2,0-3.62,1.31-4.88,3.93v11.33c1.05,2.62,2.67,3.93,4.88,3.93q2.67,0,5.5-3.46V121.71C507.71,119.4,505.87,118.25,504.2,118.25Z"/><rect class="cls-1" x="499.32" y="147.67" width="10.38" height="78.65"/><path class="cls-1" d="M555.63,140.35q13.05-12.19,35.24-12.19,25.8,0,38.06,17.3l8.82-5.5q-15.59-21.39-46.88-21.4-26.89,0-42.79,14.95t-15.89,40.27q0,24.54,15.42,39.09t41.68,14.55q30,0,47-21.71l-8.65-5.51q-13.7,17.63-38.54,17.62-21.71,0-34.14-12.11t-12.42-32.56Q542.58,152.54,555.63,140.35Z"/><path class="cls-1" d="M696.42,147.67q-19.35,0-30.68,11.24t-11.32,29q0,17.79,11.17,28.95t30.51,11.17q19.35,0,30.76-11.17t11.4-28.95q0-17.76-11.25-29T696.42,147.67Zm23,62.33q-8.5,8.44-23.13,8.45t-23-8.45q-8.43-8.44-8.42-22.07t8.34-22.22q8.34-8.44,23.12-8.45,14.94,0,23.28,8.37t8.34,22.3Q727.88,201.55,719.39,210Z"/><path class="cls-1" d="M818.17,154.27q-9.12-6.6-23.44-6.6-17.46,0-27.05,9.9v-8.18H757.3v76.93h10.38V183.47q0-11.76,7.23-19t20-7.22q10.86,0,17,5T818,176.56v49.76H828.4V175Q828.4,161.66,818.17,154.27Z"/><path class="cls-1" d="M918.69,158.36q-10.86-12.42-30.2-12.43t-30.21,12q-10.23,11.33-10.22,29.26,0,17.78,10.07,28.94,10.85,12,29.73,12,19.82,0,30.83-12.9v11.32h10.38V119.66H918.69Zm-8.32,51q-8.62,9.12-22.59,9.12t-22-9q-7.37-8.51-7.37-22.34,0-13.53,7.37-22.34,8.16-9.28,22-9.28,15.06,0,23,8.57t7.93,23.05Q918.69,200.68,910.37,209.33Z"/></svg>